<?xml version="1.0" encoding="utf-8"?>
<!-- Generator: Adobe Illustrator 19.2.1, SVG Export Plug-In . SVG Version: 6.00 Build 0)  -->
<svg version="1.1" id="Layer_1" xmlns="http://www.w3.org/2000/svg" xmlns:xlink="http://www.w3.org/1999/xlink" x="0px" y="0px"
	 viewBox="0 0 129.838 150" style="enable-background:new 0 0 129.838 150;" xml:space="preserve">
<style type="text/css">
	.st0{display:none;fill:none;stroke:#FFFFFF;stroke-width:2;stroke-linecap:round;stroke-miterlimit:10;}
	.st1{fill:#9D2106;}
	.st2{fill:#822104;}
	.st3{fill:#951B05;}
	.st4{fill:#FFFFFF;}
	.st5{fill:#8A1F0C;}
	.st6{fill:#E2E3E4;}
	.st7{fill:#6DA2C8;}
	.st8{fill:#D6E6EF;}
	.st9{fill:#B49CB5;}
	.st10{fill:#AC9EB6;}
	.st11{fill:#EBF3F7;}
	.st12{fill:#A69FB5;}
	.st13{fill:#B99FB5;}
	.st14{fill:#D093FB;}
	.st15{fill:#45F8B9;}
	.st16{fill:#41E8A3;}
	.st17{fill:#3072AA;}
	.st18{fill:#FD9E99;}
	.st19{fill:#9ED098;}
	.st20{fill:#75C5B6;}
	.st21{fill:#8DB485;}
	.st22{fill:#5AB49E;}
	.st23{fill:#E4E5E6;}
	.st24{fill:#788782;}
	.st25{fill:#CFD1D2;}
	.st26{fill:#BABCBE;}
	.st27{fill:#998379;}
	.st28{fill:#826D64;}
	.st29{fill:#EFF0F0;}
	.st30{fill:#58515B;}
	.st31{fill:#B98BD2;}
	.st32{fill:#9756AC;}
	.st33{fill:#814497;}
	.st34{fill:#25B598;}
	.st35{fill:#008B84;}
	.st36{fill:#7BE4C2;}
	.st37{fill:#25A48D;}
	.st38{fill:#68DAB4;}
	.st39{fill:#9CFFB4;}
	.st40{fill:#4D5CEA;}
	.st41{fill:#FF9B95;}
	.st42{fill:#FF868C;}
	.st43{fill:#FF6B77;}
	.st44{fill:#EF85FF;}
	.st45{fill:#C44FD7;}
	.st46{fill:#006838;}
	.st47{fill:#005E26;}
	.st48{fill:#5D3A47;}
	.st49{fill:#FFBC13;}
	.st50{fill:#808083;}
	.st51{fill:#56C681;}
	.st52{fill:#6D6E71;}
	.st53{fill:#D3951D;}
	.st54{fill:#3FB068;}
	.st55{fill:#FBEEEE;}
	.st56{fill:#FBF0F1;}
	.st57{fill:#F9E7E8;}
	.st58{fill:#F5D9DB;}
	.st59{fill:#F1C9CC;}
	.st60{fill:#44A468;}
	.st61{fill:#389D61;}
	.st62{fill:#E7A1A5;}
	.st63{fill:#2DAB5B;}
	.st64{fill:#4EC5FF;}
	.st65{fill:#3EA2FF;}
	.st66{fill:#00774E;}
	.st67{fill:#673DAB;}
	.st68{fill:#DEFF5C;}
	.st69{fill:#00BFE0;}
	.st70{fill:#E1329F;}
	.st71{fill:#00BAA3;}
	.st72{fill:#00DCA3;}
	.st73{fill:#00A9E0;}
	.st74{fill:#FF329F;}
	.st75{fill:#FD76A2;}
	.st76{fill:#E76899;}
	.st77{fill:#A37550;}
	.st78{fill:#956744;}
	.st79{fill:#504239;}
	.st80{fill:#FD86AE;}
	.st81{fill:#F5A7D6;}
	.st82{fill:#A54A78;}
	.st83{fill:#D898FF;}
	.st84{fill:#76DDED;}
	.st85{fill:#D888FF;}
	.st86{fill:#715D94;}
	.st87{fill:#52A871;}
	.st88{fill:#F9CA40;}
	.st89{fill:#F9B240;}
	.st90{fill:#919396;}
	.st91{fill:none;stroke:#7CACCD;stroke-width:2;stroke-linecap:round;stroke-linejoin:round;stroke-miterlimit:10;}
	.st92{fill:#1C75BA;}
	.st93{fill:#726658;}
	.st94{fill:#138B38;}
	.st95{fill:#675D50;}
	.st96{fill:#13A138;}
	.st97{fill:#C5C7C8;}
	.st98{fill:#224463;}
	.st99{fill:#594A42;}
	.st100{fill:#1C65AC;}
	.st101{fill:#A5A7AA;}
	.st102{fill:#007E38;}
</style>
<g>
	<path class="st92" d="M90.478,93.9l0.43,0.1c1.7,0.38,3.23,0.8,4.58,1.26c5.65,1.91,8.832,4.87,8.512,7.74
		c-0.37,3.25-4.982,4.87-15.472,6l-19.75,1.76h-0.01l-3.22-2.91l-9.52,0.06l-3.98,10.59l6.21,1.32l0.41,0.19l-1.47,3.14l5.3,2.14
		l4.56-1.22l0.38-0.77l6.38,1.74l29.185,8.079c3.71,1.02,4.07,6.14,0.54,7.66c-0.52,0.22-1.07,0.33-1.62,0.33
		c-0.42,0-0.84-0.06-1.25-0.19l-17.525-5.729c-0.2-0.06-0.4-0.07-0.6-0.02c-0.56,0.14-0.85,0.61-0.85,1.08
		c0,0.43,0.24,0.86,0.74,1.04l9.71,3.38c1.71,0.6,1.79,2.97,0.14,3.69c-0.25,0.11-0.52,0.16-0.78,0.16c-0.28,0-0.55-0.06-0.81-0.17
		l-6.37-2.85c-0.43-0.19-0.94-0.16-1.35,0.08c-0.49,0.28-0.73,0.78-0.73,1.27c0,0.53,0.572,1.208,1.112,1.478
		c0.85,0.42,1.27,1.24,1.27,2.05c0,0.83-0.44,1.66-1.31,2.07l-0.55,0.25c-0.6,0.29-1.3,0.29-1.91,0.02L37.228,129
		c-5.36-2.64-8.7-6.37-8.7-10.5l0.25-0.62l1.25,0.51l4.56-1.22l1.39-2.84l-1.64-1.48l5.64-2.28l-1.17-2.49l0.02-0.01
		c1.44-0.51,3.01-0.96,4.7-1.36c3.4-0.8,7.27-1.39,11.5-1.8c4.24-0.41,21.5-0.91,21.5-0.91c8.7-0.14,18.73-0.67,19-3
		c0.29-2.56-10.43-6.41-20.29-8.56l-5.07-1.45l-1.11-2L90.478,93.9z"/>
	<path class="st93" d="M96.099,87.003v8.469c-1.214-0.557-6.06-1.673-6.06-1.673V86.95L96.099,87.003z"/>
	<polygon class="st26" points="79.941,119.6 78.288,123.7 73.858,124.89 73.818,125.04 67.438,123.3 68.448,121.23 65.728,118.78 
		67.648,114.69 72.858,114.66 74.808,114.65 	"/>
	<path class="st94" d="M73.02,97.04c0.236,0.43-0.069,0.96-0.552,0.96h-29.01H4.959c-0.483,0-0.788-0.53-0.552-0.96L23.583,62
		h-7.578c-0.483,0-0.788-0.53-0.552-0.96l15.086-27.015h-7.312c-0.493,0-0.798-0.53-0.552-0.97l15.49-26.761
		c0.246-0.43,0.847-0.43,1.094,0l7.676,13.026l8.1,13.735c0.246,0.44-0.059,0.97-0.542,0.97h-7.608L61.973,61.04
		C62.21,61.47,61.904,62,61.422,62h-7.587l14.781,26.99l1.094,2L73.02,97.04z"/>
	<polygon class="st26" points="72.858,114.44 72.858,114.66 67.648,114.69 65.728,118.78 64.648,117.8 59.698,117.83 58.668,120.01 
		58.258,119.82 52.048,118.5 56.028,107.91 65.548,107.85 68.768,110.76 68.778,110.76 	"/>
	<polygon class="st26" points="68.448,121.23 67.438,123.3 67.058,124.07 62.498,125.29 57.198,123.15 58.668,120.01 59.698,117.83 
		64.648,117.8 65.728,118.78 	"/>
	<path class="st93" d="M43.073,98.08v8.63c-1.522,0.4-2.935,0.85-4.232,1.36l-0.018,0.01l-2.026-4.8l-2.737-0.02v-0.02v-5.16H43.073
		z"/>
	<rect x="90.039" y="87" class="st95" width="6.058" height="2.92"/>
	<path class="st96" d="M17.481,97.04L36.656,62h-7.578c-0.483,0-0.789-0.53-0.552-0.96l15.086-27.015h-7.312
		c-0.493,0-0.798-0.53-0.552-0.97l9.5-16.67L39.26,6.294c-0.246-0.43-0.848-0.43-1.094,0l-15.49,26.761
		c-0.246,0.44,0.059,0.97,0.552,0.97h7.312L15.453,61.04C15.217,61.47,15.522,62,16.005,62h7.578L4.407,97.04
		C4.17,97.47,4.476,98,4.959,98h13.073C17.549,98,17.244,97.47,17.481,97.04z"/>
	<polygon class="st26" points="38.808,108.08 39.978,110.57 34.338,112.85 32.178,110.9 27.228,110.93 26.748,111.96 26.468,111.83 
		24.548,107.94 29.768,103 33.518,103.02 36.558,103.04 	"/>
	<polygon class="st26" points="35.978,114.33 34.588,117.17 30.028,118.39 28.778,117.88 25,116.25 26.748,111.96 27.228,110.93 
		32.178,110.9 34.338,112.85 	"/>
	<path class="st95" d="M38.808,108.08l0.02-0.01c0.833-0.295,1.723-0.565,2.641-0.822l-2.91-6.265l-4.499-0.015l-0.001,2.272
		l2.499,0.04L38.808,108.08z"/>
	<polygon class="st95" points="43.073,101 34.06,100.968 34.06,98.08 43.073,98.08 	"/>
	<polygon class="st97" points="71.973,123.3 72.983,121.23 70.263,118.78 72.183,114.69 74.836,114.675 74.808,114.65 
		72.858,114.66 67.648,114.69 65.728,118.78 68.448,121.23 67.438,123.3 73.818,125.04 73.858,124.89 75.845,124.356 	"/>
	<g>
		<polygon class="st97" points="56.583,118.5 60.563,107.91 65.58,107.878 65.548,107.85 56.028,107.91 52.048,118.5 58.258,119.82 
			58.668,120.01 59.126,119.041 		"/>
	</g>
	<polygon class="st97" points="61.733,123.15 63.203,120.01 64.233,117.83 64.678,117.827 64.648,117.8 59.698,117.83 
		58.668,120.01 57.198,123.15 62.498,125.29 65.226,124.56 	"/>
	<g>
		<polygon class="st97" points="29.083,107.94 34.275,103.025 33.518,103.02 29.768,103 24.548,107.94 26.468,111.83 26.748,111.96 
			27.228,110.93 30.549,110.91 		"/>
	</g>
	<polygon class="st97" points="29.263,116.25 31.283,111.96 31.763,110.93 32.208,110.927 32.178,110.9 27.228,110.93 
		26.748,111.96 25,116.25 28.778,117.88 30.028,118.39 32.762,117.659 	"/>
	<g>
		<path class="st94" d="M110.1,86.52c0.12,0.21-0.04,0.48-0.29,0.48l-33.86-0.01c-0.24,0-0.4-0.32-0.28-0.53l9.73-17.55h-3.84
			c-0.25,0-0.41-0.27-0.28-0.48l7.65-13.42h-3.71c-0.25,0-0.4-0.27-0.28-0.48l7.86-13.35c0.12-0.21,0.43-0.21,0.56,0l7.85,13.35
			c0.13,0.21-0.03,0.48-0.28,0.48h-3.7l7.65,13.42c0.12,0.21-0.03,0.48-0.28,0.48h-3.85L110.1,86.52z"/>
	</g>
	<path class="st96" d="M83.321,86.99c-0.24,0-0.4-0.32-0.28-0.53l9.73-17.55h-3.84c-0.25,0-0.41-0.27-0.28-0.48l7.65-13.42h-3.71
		c-0.25,0-0.4-0.27-0.28-0.48l4.452-7.562L93.36,41.18c-0.13-0.21-0.44-0.21-0.56,0l-7.86,13.35c-0.12,0.21,0.03,0.48,0.28,0.48
		h3.71l-7.65,13.42c-0.13,0.21,0.03,0.48,0.28,0.48h3.84l-9.73,17.55c-0.12,0.21,0.04,0.53,0.28,0.53L109.81,87
		c0.003,0,0.005-0.002,0.008-0.002L83.321,86.99z"/>
	<g>
		<g>
			<path class="st98" d="M78.132,81.022H65.317c-0.553,0-1,0.447-1,1s0.447,1,1,1h12.814c0.553,0,1-0.447,1-1
				S78.684,81.022,78.132,81.022z"/>
			<path class="st98" d="M81.413,45.631c-0.236-0.405-0.674-0.656-1.143-0.656c-0.001,0-0.001,0-0.002,0
				c-0.469,0-0.906,0.253-1.136,0.649l-6.677,11.239l-3.323-5.893h1.995c0.472,0,0.91-0.254,1.146-0.663s0.234-0.917-0.005-1.329
				l-7.854-13.365c-0.236-0.405-0.674-0.656-1.143-0.656c-0.001,0-0.001,0-0.002,0c-0.469,0-0.906,0.253-1.139,0.653l-7.452,12.673
				c-0.279,0.476-0.121,1.089,0.355,1.369c0.478,0.28,1.089,0.12,1.369-0.355l6.868-11.681l6.672,11.354H67.42
				c-0.355,0-0.685,0.188-0.863,0.496c-0.18,0.307-0.183,0.686-0.008,0.996l7.084,12.561h-2.688c-0.354,0-0.683,0.188-0.862,0.493
				c-0.18,0.306-0.184,0.683-0.012,0.993l8.589,15.459c0.183,0.329,0.523,0.515,0.875,0.515c0.164,0,0.331-0.04,0.484-0.126
				c0.483-0.269,0.657-0.877,0.389-1.359l-7.764-13.974h2.147c0.468,0,0.905-0.251,1.142-0.655s0.241-0.908,0.011-1.317
				l-2.356-4.179l6.687-11.253l4.27,7.109c0.284,0.474,0.897,0.627,1.372,0.343c0.474-0.285,0.627-0.899,0.343-1.372L81.413,45.631z
				"/>
			<path class="st98" d="M15.999,44.672c-0.225-0.385-0.641-0.624-1.086-0.624s-0.861,0.239-1.081,0.614l-6.273,10.48
				c-0.228,0.388-0.23,0.871-0.007,1.261s0.642,0.633,1.092,0.633h1.302L4.631,67.14c-0.219,0.388-0.215,0.867,0.01,1.251
				c0.225,0.385,0.641,0.624,1.086,0.624h1.347l-6.928,12.12c-0.216,0.388-0.21,0.866,0.015,1.249s0.641,0.62,1.084,0.62h10.742
				c0.553,0,1-0.447,1-1s-0.447-1-1-1H2.524l7.141-12.493c0.177-0.31,0.176-0.689-0.003-0.998c-0.18-0.308-0.509-0.498-0.865-0.498
				H6.956l5.53-10.512c0.163-0.31,0.152-0.683-0.028-0.983c-0.182-0.3-0.506-0.483-0.856-0.483H9.953l4.951-8.271l3.924,6.735
				c0.277,0.477,0.889,0.638,1.367,0.361c0.478-0.278,0.639-0.891,0.361-1.368L15.999,44.672z"/>
			<path class="st98" d="M129.957,93.669l-4.312-7.763h2.147c0.468,0,0.905-0.251,1.142-0.654s0.241-0.908,0.009-1.321
				l-6.804-11.969h1.643c0.472,0,0.911-0.254,1.146-0.664s0.234-0.917,0.008-1.305l-7.522-13.613
				c-0.236-0.405-0.674-0.656-1.143-0.656c-0.001,0-0.001,0-0.002,0c-0.469,0-0.906,0.253-1.143,0.66l-7.854,13.59
				c-0.237,0.408-0.238,0.915-0.003,1.324s0.675,0.664,1.146,0.664h1.984l-4.42,7.748c-0.274,0.479-0.107,1.09,0.373,1.363
				c0.479,0.275,1.091,0.107,1.363-0.373l5.273-9.243c0.177-0.31,0.176-0.689-0.004-0.998c-0.179-0.308-0.508-0.498-0.864-0.498
				h-2.532l6.669-11.538l6.376,11.538h-2.214c-0.356,0-0.686,0.189-0.864,0.497s-0.181,0.688-0.005,0.997l7.077,12.45h-2.683
				c-0.354,0-0.683,0.188-0.862,0.493c-0.18,0.305-0.184,0.683-0.012,0.992l5.138,9.248c0.183,0.329,0.523,0.515,0.875,0.515
				c0.164,0,0.331-0.04,0.484-0.126C130.051,94.76,130.225,94.151,129.957,93.669z"/>
			<path class="st98" d="M117.325,39.659c0.196,0.224,0.474,0.341,0.754,0.341c0.191,0,0.384-0.055,0.554-0.168l6-4
				c0.46-0.306,0.584-0.927,0.277-1.387c-0.307-0.46-0.927-0.584-1.387-0.277l-5.271,3.514l-6.422-7.34
				c-0.266-0.303-0.689-0.419-1.069-0.29l-5.261,1.753L85.471,0.461c-0.169-0.265-0.452-0.434-0.766-0.458
				c-0.309-0.025-0.62,0.101-0.827,0.335l-18.52,20.98l-7.009-6.359c-0.27-0.245-0.652-0.322-0.994-0.206l-10.62,3.62
				c-0.523,0.178-0.803,0.746-0.624,1.269c0.179,0.522,0.747,0.804,1.269,0.624l10.062-3.429l7.323,6.644
				c0.198,0.179,0.465,0.269,0.728,0.258c0.267-0.015,0.517-0.136,0.694-0.337L84.501,2.656l19.734,30.882
				c0.246,0.386,0.727,0.554,1.159,0.41l5.369-1.79L117.325,39.659z"/>
			<path class="st98" d="M25.456,25.633l-8.856,3.015l-3.462-3.293c-0.277-0.262-0.679-0.347-1.035-0.213l-7.67,2.83
				c-0.519,0.191-0.783,0.766-0.593,1.284c0.191,0.518,0.77,0.785,1.284,0.592l7.086-2.614l3.449,3.281
				c0.189,0.18,0.437,0.275,0.689,0.275c0.108,0,0.217-0.018,0.322-0.053l9.43-3.21c0.522-0.178,0.803-0.746,0.624-1.269
				C26.548,25.735,25.979,25.456,25.456,25.633z"/>
		</g>
		<path class="st99" d="M96.096,96.472c-0.553,0-1-0.447-1-1v-8.469c0-0.553,0.447-1,1-1s1,0.447,1,1v8.469
			C97.096,96.024,96.649,96.472,96.096,96.472z"/>
		<path class="st99" d="M90.039,94.718c-0.553,0-1-0.447-1-1V87c0-0.553,0.447-1,1-1s1,0.447,1,1v6.718
			C91.039,94.271,90.592,94.718,90.039,94.718z"/>
		<path class="st100" d="M68.777,111.76c-0.513,0-0.949-0.392-0.995-0.911c-0.049-0.55,0.357-1.036,0.907-1.085l19.75-1.76
			c9.919-1.068,14.281-2.6,14.567-5.117c0.263-2.358-2.813-4.98-7.839-6.68c-1.305-0.444-2.811-0.858-4.478-1.231l-21.855-5.011
			c-0.538-0.123-0.874-0.66-0.751-1.198s0.657-0.877,1.198-0.751l21.852,5.01c1.73,0.387,3.307,0.82,4.677,1.288
			c6.133,2.073,9.566,5.362,9.184,8.798c-0.491,4.317-6.623,5.834-16.358,6.883l-19.769,1.762
			C68.837,111.759,68.806,111.76,68.777,111.76z"/>
		<path class="st99" d="M43.074,107.715c-0.553,0-1-0.442-1-0.995v-8.64c0-0.553,0.447-1,1-1s1,0.447,1,1v8.63
			C44.074,107.263,43.627,107.715,43.074,107.715z"/>
		<path class="st99" d="M34,104c-0.553,0-1-0.447-1-1v-4.92c0-0.553,0.447-1,1-1s1,0.447,1,1V103C35,103.553,34.552,104,34,104z"/>
		<path class="st100" d="M96.521,101.112c0.544-4.796-18.856-9.166-21.008-9.634l-5.069-1.45c-0.526-0.145-1.085,0.155-1.237,0.687
			c-0.151,0.531,0.156,1.085,0.687,1.237l5.132,1.466c11.681,2.546,19.356,6.133,19.521,7.426
			c-0.232,0.441-2.219,1.902-18.033,2.156c-0.002,0-0.004,0.001-0.006,0.001c-0.002,0-0.005-0.001-0.007-0.001
			c-0.706,0.021-17.342,0.506-21.567,0.915c-4.389,0.426-8.303,1.038-11.634,1.822c-1.763,0.417-3.38,0.886-4.804,1.391
			c-0.521,0.185-0.793,0.756-0.608,1.276c0.146,0.41,0.531,0.666,0.942,0.666c0.111,0,0.224-0.019,0.334-0.058
			c1.357-0.481,2.903-0.929,4.595-1.329c3.243-0.763,7.067-1.361,11.368-1.778c4.158-0.402,21.26-0.9,21.433-0.905
			c0,0,0.001,0,0.001,0C92.838,104.737,96.266,103.319,96.521,101.112z"/>
		<path class="st101" d="M58.259,120.82c-0.069,0-0.139-0.007-0.209-0.021l-6.21-1.32c-0.285-0.061-0.529-0.243-0.669-0.498
			c-0.14-0.256-0.161-0.56-0.06-0.832l3.979-10.59c0.146-0.388,0.516-0.646,0.93-0.648l9.521-0.061c0.003,0,0.005,0,0.007,0
			c0.248,0,0.486,0.092,0.671,0.258l3.143,2.841c0.029,0.021,0.059,0.044,0.086,0.069l4.08,3.681
			c0.41,0.369,0.442,1.002,0.072,1.412c-0.371,0.411-1.003,0.441-1.412,0.072l-4.003-3.61c-0.03-0.022-0.06-0.046-0.088-0.07
			l-2.931-2.649l-8.444,0.054l-3.329,8.857l5.073,1.078c0.54,0.115,0.885,0.646,0.771,1.187
			C59.136,120.498,58.721,120.82,58.259,120.82z"/>
		<path class="st101" d="M73.857,125.89c-0.441,0-0.845-0.294-0.965-0.74c-0.144-0.534,0.173-1.082,0.706-1.226l3.948-1.06
			l1.214-3.013l-4.354-4.199l-6.122,0.034l-1.651,3.519c-0.233,0.499-0.827,0.716-1.33,0.48c-0.5-0.234-0.715-0.83-0.48-1.33
			l1.92-4.09c0.164-0.35,0.514-0.573,0.899-0.575l7.161-0.04c0.272,0.003,0.512,0.1,0.699,0.28l5.132,4.949
			c0.293,0.283,0.386,0.716,0.233,1.094l-1.652,4.101c-0.117,0.291-0.365,0.511-0.668,0.592l-4.43,1.189
			C74.031,125.879,73.943,125.89,73.857,125.89z"/>
		<path class="st90" d="M34.339,113.85c-0.396,0-0.77-0.236-0.927-0.625c-0.207-0.513,0.04-1.095,0.552-1.302l4.66-1.884
			l-0.721-1.534l-1.995-4.469l-5.743-0.034l-4.393,4.157l1.593,3.229c0.245,0.495,0.041,1.095-0.454,1.339
			c-0.493,0.246-1.096,0.042-1.339-0.454l-1.92-3.89c-0.194-0.394-0.109-0.867,0.209-1.169l5.22-4.94
			c0.186-0.176,0.432-0.273,0.688-0.273c0.002,0,0.004,0,0.005,0l6.792,0.04c0.392,0.003,0.746,0.234,0.906,0.593l2.25,5.04
			l1.162,2.473c0.116,0.248,0.126,0.534,0.025,0.79c-0.1,0.256-0.301,0.459-0.556,0.562l-5.64,2.279
			C34.591,113.826,34.464,113.85,34.339,113.85z"/>
		<path class="st100" d="M81.807,149.92c-0.457,0-0.919-0.096-1.353-0.288l-43.639-19.721c-6-2.954-9.288-7.002-9.288-11.411
			c0-0.553,0.447-1,1-1s1,0.447,1,1c0,3.555,2.968,7.055,8.142,9.603l43.603,19.704c0.343,0.153,0.732,0.151,1.063-0.009l0.57-0.26
			c0.448-0.212,0.724-0.647,0.724-1.16c0-0.502-0.267-0.933-0.713-1.153c-0.812-0.406-1.669-1.375-1.669-2.375
			c0-0.896,0.461-1.696,1.234-2.138c0.681-0.399,1.523-0.448,2.251-0.126l6.373,2.851c0.248,0.105,0.551,0.107,0.781,0.008
			c0.572-0.25,0.598-0.782,0.592-0.939c-0.006-0.156-0.071-0.685-0.662-0.892l-9.708-3.379c-0.86-0.31-1.411-1.087-1.411-1.984
			c0-0.986,0.646-1.811,1.608-2.051c0.37-0.092,0.752-0.08,1.131,0.034l17.547,5.735c0.665,0.21,1.471,0.186,2.169-0.111
			c1.465-0.63,1.91-1.975,1.838-3.022c-0.072-1.051-0.703-2.326-2.252-2.752l-35.563-9.818c-0.533-0.146-0.848-0.695-0.702-1.228
			c0.145-0.534,0.699-0.849,1.228-0.702l6.38,1.74l29.189,8.08c2.105,0.579,3.565,2.361,3.716,4.541
			c0.151,2.176-1.045,4.139-3.047,5.001c-1.144,0.484-2.433,0.536-3.567,0.175l-17.534-5.731c-0.082,0.008-0.14,0.022-0.14,0.109
			c0,0.061,0.025,0.08,0.078,0.099l9.701,3.377c1.17,0.41,1.954,1.472,2,2.705c0.046,1.234-0.656,2.352-1.789,2.846
			c-0.725,0.318-1.597,0.325-2.38-0.006l-6.389-2.857c-0.13-0.059-0.304-0.047-0.436,0.03c-0.214,0.122-0.236,0.324-0.236,0.406
			c0.027,0.113,0.296,0.452,0.561,0.584c1.121,0.555,1.821,1.684,1.821,2.944c0,1.287-0.722,2.428-1.883,2.975l-0.562,0.256
			C82.756,149.815,82.284,149.92,81.807,149.92z"/>
		<path class="st101" d="M62.498,126.29c-0.128,0-0.255-0.024-0.374-0.072l-5.3-2.14c-0.255-0.104-0.456-0.307-0.557-0.562
			c-0.101-0.256-0.092-0.542,0.025-0.79l2.501-5.323c0.164-0.348,0.514-0.571,0.898-0.573l4.95-0.03
			c0.295,0.013,0.493,0.092,0.678,0.26l3.797,3.428c0.332,0.299,0.426,0.781,0.229,1.182l-1.01,2.069
			c0,0.001-0.001,0.003-0.002,0.004l-0.38,0.771c-0.127,0.258-0.359,0.449-0.638,0.523l-4.561,1.22
			C62.672,126.278,62.585,126.29,62.498,126.29z M58.551,122.618l4.011,1.619l3.8-1.016l0.856-1.753l-2.954-2.667l-3.931,0.024
			L58.551,122.618z M67.438,123.3h0.01H67.438z"/>
		<path class="st101" d="M30.028,119.39c-0.129,0-0.257-0.024-0.378-0.074l-1.25-0.51c-0.006-0.002-0.012-0.005-0.019-0.008
			l-3.778-1.63c-0.499-0.216-0.735-0.791-0.529-1.295l1.748-4.29l0.5-1.076c0.163-0.35,0.514-0.575,0.9-0.577l4.95-0.029
			c0.216,0.025,0.49,0.091,0.676,0.258l3.8,3.43c0.331,0.299,0.425,0.781,0.229,1.182l-1.39,2.84c-0.127,0.26-0.36,0.452-0.64,0.526
			l-4.561,1.22C30.202,119.378,30.115,119.39,30.028,119.39z M29.165,116.958l0.93,0.379l3.796-1.016l0.858-1.754l-2.952-2.665
			l-3.93,0.023l-0.213,0.457l-1.358,3.337L29.165,116.958z"/>
		<path class="st100" d="M67.913,137.831c-0.125,0-0.251-0.023-0.374-0.072l-10.18-4.105c-0.512-0.207-0.76-0.79-0.554-1.302
			c0.207-0.513,0.79-0.756,1.302-0.554l10.18,4.105c0.512,0.207,0.76,0.79,0.554,1.302
			C68.683,137.595,68.308,137.831,67.913,137.831z"/>
		<path class="st100" d="M65.363,133.332c-0.125,0-0.251-0.023-0.374-0.072l-10.18-4.105c-0.512-0.207-0.76-0.79-0.554-1.302
			c0.207-0.513,0.79-0.757,1.302-0.554l10.18,4.105c0.512,0.207,0.76,0.79,0.554,1.302
			C66.134,133.096,65.759,133.332,65.363,133.332z"/>
		<g>
			<path class="st102" d="M55.521,63h5.9c0.581,0,1.104-0.3,1.402-0.803c0.301-0.508,0.311-1.121,0.022-1.645L48.592,35.025h5.903
				c0.582,0,1.106-0.301,1.401-0.805c0.301-0.512,0.306-1.13,0.002-1.672L40.128,5.796c-0.297-0.517-0.825-0.825-1.414-0.825
				c-0.001,0-0.001,0-0.002,0c-0.589,0-1.117,0.31-1.41,0.822L21.804,32.565c-0.293,0.522-0.289,1.139,0.011,1.65
				c0.297,0.507,0.824,0.809,1.413,0.809h5.607L14.577,60.559c-0.285,0.518-0.275,1.13,0.025,1.639C14.9,62.7,15.424,63,16.005,63
				h5.891L3.531,96.559c-0.285,0.517-0.275,1.13,0.025,1.639C3.854,98.7,4.378,99,4.959,99h67.509c0.581,0,1.105-0.3,1.402-0.803
				c0.301-0.509,0.311-1.121,0.026-1.638L55.521,63z M5.569,97L24.46,62.48c0.17-0.31,0.163-0.686-0.017-0.99
				c-0.181-0.304-0.507-0.49-0.86-0.49h-6.962l14.792-26.487c0.173-0.31,0.169-0.688-0.011-0.994
				c-0.18-0.306-0.508-0.494-0.862-0.494h-6.69L38.717,7.341l15.142,25.684h-6.971c-0.354,0-0.683,0.188-0.862,0.494
				c-0.18,0.306-0.184,0.684-0.011,0.994L60.805,61h-6.972c-0.354,0-0.681,0.187-0.86,0.49s-0.187,0.68-0.017,0.99L71.857,97H5.569z
				"/>
			<path class="st102" d="M33.402,29.513l0.31-0.532l0.314,0.535c0.28,0.477,0.896,0.635,1.368,0.356
				c0.477-0.279,0.636-0.892,0.356-1.369l-1.18-2.01C34.391,26.188,34.063,26,33.709,26c-0.001,0-0.001,0-0.002,0
				c-0.354,0-0.684,0.189-0.862,0.497l-1.171,2.01c-0.277,0.477-0.116,1.089,0.361,1.368c0.158,0.092,0.331,0.136,0.502,0.136
				C32.881,30.01,33.217,29.832,33.402,29.513z"/>
			<path class="st102" d="M45.751,26.503l-1.18-2.01C44.391,24.188,44.063,24,43.709,24c-0.001,0-0.001,0-0.002,0
				c-0.354,0-0.684,0.189-0.862,0.497l-1.171,2.01c-0.277,0.477-0.116,1.089,0.361,1.368c0.158,0.092,0.331,0.136,0.502,0.136
				c0.344,0,0.68-0.178,0.865-0.497l0.31-0.532l0.314,0.535c0.279,0.477,0.895,0.635,1.368,0.356
				C45.871,27.593,46.03,26.98,45.751,26.503z"/>
			<path class="st102" d="M31.212,48.045c-0.18-0.308-0.54-0.487-0.865-0.496c-0.356,0-0.685,0.19-0.863,0.499l-1.17,2.02
				c-0.277,0.478-0.114,1.089,0.364,1.366c0.157,0.091,0.33,0.135,0.5,0.135c0.345,0,0.681-0.179,0.866-0.499l0.309-0.532
				l0.312,0.535c0.278,0.477,0.892,0.638,1.367,0.359c0.478-0.279,0.638-0.891,0.359-1.368L31.212,48.045z"/>
			<path class="st102" d="M49.211,52.494C49.031,52.188,48.703,52,48.348,52c-0.001,0-0.001,0-0.002,0
				c-0.355,0-0.684,0.19-0.862,0.497l-1.17,2.01c-0.277,0.477-0.116,1.089,0.361,1.367c0.158,0.092,0.331,0.136,0.502,0.136
				c0.345,0,0.68-0.178,0.865-0.497l0.31-0.531l0.313,0.535c0.28,0.477,0.894,0.635,1.368,0.356
				c0.477-0.279,0.636-0.892,0.356-1.369L49.211,52.494z"/>
			<path class="st102" d="M42.042,39.565c-0.179-0.307-0.508-0.496-0.863-0.496c-0.001,0-0.001,0-0.002,0
				c-0.356,0-0.685,0.19-0.863,0.499l-1.17,2.02c-0.277,0.478-0.114,1.089,0.364,1.366c0.157,0.091,0.33,0.135,0.5,0.135
				c0.345,0,0.681-0.179,0.866-0.499l0.309-0.532l0.312,0.535c0.278,0.477,0.893,0.64,1.367,0.359
				c0.478-0.278,0.638-0.891,0.359-1.368L42.042,39.565z"/>
			<path class="st102" d="M36.876,19.874c0.158,0.092,0.331,0.136,0.502,0.136c0.345,0,0.68-0.178,0.865-0.497l0.31-0.531
				l0.313,0.535c0.28,0.477,0.895,0.636,1.368,0.356c0.477-0.279,0.636-0.892,0.356-1.369l-1.18-2.01
				C39.231,16.188,38.903,16,38.549,16c-0.389,0.015-0.686,0.189-0.864,0.497l-1.17,2.01C36.237,18.984,36.398,19.596,36.876,19.874
				z"/>
			<path class="st102" d="M37.032,61.493c0.478-0.278,0.638-0.891,0.359-1.368l-1.18-2.02c-0.179-0.307-0.508-0.496-0.863-0.496
				c-0.001,0-0.001,0-0.002,0c-0.356,0-0.685,0.19-0.863,0.499l-1.17,2.02c-0.277,0.478-0.114,1.089,0.364,1.366
				c0.157,0.091,0.33,0.135,0.5,0.135c0.345,0,0.681-0.179,0.866-0.499l0.309-0.532l0.312,0.535
				C35.943,61.611,36.557,61.773,37.032,61.493z"/>
			<path class="st102" d="M38.572,80.006c-0.179-0.308-0.508-0.496-0.863-0.496c-0.001,0-0.001,0-0.002,0
				c-0.355,0.001-0.685,0.19-0.863,0.499l-1.171,2.021c-0.277,0.478-0.114,1.089,0.364,1.366c0.157,0.092,0.33,0.135,0.5,0.135
				c0.345,0,0.681-0.179,0.866-0.499l0.309-0.532l0.313,0.535c0.278,0.477,0.892,0.639,1.367,0.359
				c0.478-0.278,0.638-0.891,0.359-1.367L38.572,80.006z"/>
			<path class="st102" d="M23.211,86.475c-0.18-0.307-0.508-0.494-0.862-0.494c-0.001,0-0.001,0-0.002,0
				c-0.355,0.001-0.684,0.189-0.862,0.497l-1.17,2.01c-0.277,0.478-0.116,1.089,0.361,1.367c0.158,0.092,0.331,0.136,0.502,0.136
				c0.345,0,0.68-0.178,0.865-0.497l0.31-0.531l0.313,0.534c0.28,0.477,0.894,0.638,1.368,0.356
				c0.477-0.279,0.636-0.893,0.356-1.368L23.211,86.475z"/>
			<path class="st102" d="M48.211,88.475c-0.18-0.307-0.508-0.494-0.862-0.494c-0.001,0-0.001,0-0.002,0
				c-0.355,0.001-0.684,0.189-0.862,0.497l-1.17,2.01c-0.277,0.478-0.116,1.089,0.361,1.367c0.158,0.092,0.331,0.136,0.502,0.136
				c0.345,0,0.68-0.178,0.865-0.497l0.31-0.531l0.313,0.534c0.28,0.477,0.896,0.637,1.368,0.356
				c0.477-0.279,0.636-0.893,0.356-1.368L48.211,88.475z"/>
			<path class="st102" d="M53.506,84.765c0.158,0.092,0.331,0.136,0.502,0.136c0.345,0,0.68-0.178,0.865-0.497l0.31-0.531
				l0.313,0.534c0.278,0.477,0.892,0.637,1.368,0.356c0.477-0.279,0.636-0.892,0.356-1.368l-1.18-2.011
				c-0.18-0.307-0.508-0.494-0.862-0.494c-0.001,0-0.001,0-0.002,0c-0.355,0.001-0.684,0.189-0.862,0.497l-1.17,2.011
				C52.867,83.875,53.028,84.487,53.506,84.765z"/>
			<path class="st102" d="M28.211,70.484c-0.18-0.306-0.508-0.494-0.862-0.494c-0.001,0-0.001,0-0.002,0
				c-0.355,0-0.684,0.19-0.862,0.497l-1.17,2.01c-0.277,0.477-0.116,1.089,0.361,1.367C25.834,73.957,26.007,74,26.177,74
				c0.345,0,0.68-0.178,0.865-0.497l0.31-0.531l0.313,0.535c0.279,0.477,0.895,0.635,1.368,0.356
				c0.477-0.279,0.636-0.892,0.356-1.369L28.211,70.484z"/>
			<path class="st102" d="M48.211,65.484c-0.18-0.307-0.52-0.482-0.864-0.494c-0.355,0-0.684,0.19-0.862,0.497l-1.17,2.01
				c-0.277,0.477-0.116,1.089,0.361,1.367C45.834,68.957,46.007,69,46.177,69c0.345,0,0.68-0.178,0.865-0.497l0.31-0.531
				l0.313,0.535c0.28,0.477,0.896,0.635,1.368,0.356c0.477-0.279,0.636-0.892,0.356-1.369L48.211,65.484z"/>
			<path class="st102" d="M110.979,86.042l-8.566-16.132h2.188c0.469,0,0.906-0.251,1.142-0.656
				c0.236-0.406,0.239-0.911,0.008-1.319L98.951,56.01h1.979c0.481,0,0.926-0.261,1.159-0.68c0.231-0.415,0.221-0.922-0.017-1.307
				l-7.862-13.369c-0.246-0.397-0.656-0.646-1.157-0.631c-0.47,0.008-0.889,0.255-1.114,0.65l-7.867,13.361
				c-0.232,0.407-0.23,0.912,0.006,1.318c0.235,0.406,0.673,0.658,1.143,0.658h1.989l-6.78,11.895
				c-0.249,0.402-0.26,0.91-0.029,1.325c0.234,0.42,0.679,0.681,1.16,0.681h2.142l-8.899,16.054
				c-0.236,0.412-0.229,0.934,0.018,1.359c0.242,0.418,0.665,0.667,1.13,0.667L109.81,88c0.473,0,0.913-0.254,1.15-0.663
				C111.193,86.938,111.2,86.443,110.979,86.042z M77.074,85.99l9.201-16.595c0.171-0.31,0.166-0.687-0.014-0.992
				S85.755,67.91,85.4,67.91h-2.673L89.8,55.505c0.176-0.31,0.175-0.689-0.005-0.998c-0.179-0.308-0.508-0.498-0.864-0.498h-2.523
				l6.673-11.333l6.665,11.333H97.23c-0.356,0-0.686,0.189-0.864,0.498c-0.18,0.308-0.181,0.688-0.005,0.998l7.072,12.405h-2.684
				c-0.351,0-0.676,0.184-0.857,0.485c-0.181,0.301-0.19,0.674-0.025,0.984L108.692,86L77.074,85.99z"/>
		</g>
	</g>
</g>
</svg>
