<?xml version="1.0" encoding="utf-8"?>
<!-- Generator: Adobe Illustrator 19.2.0, SVG Export Plug-In . SVG Version: 6.00 Build 0)  -->
<svg version="1.1" id="Layer_1" xmlns="http://www.w3.org/2000/svg" xmlns:xlink="http://www.w3.org/1999/xlink" x="0px" y="0px"
	 viewBox="0 0 150 150" style="enable-background:new 0 0 150 150;" xml:space="preserve">
<style type="text/css">
	.st0{fill:#C29F54;}
	.st1{fill:#FFFFFF;}
	.st2{fill:#FD94FF;}
	.st3{fill:#72A788;}
	.st4{fill:#A2DDD1;}
	.st5{fill:#5D8B71;}
	.st6{fill:#E6E4DA;}
	.st7{fill:#8BB9B1;}
	.st8{fill:#365C3C;}
	.st9{fill:#F8F8F5;}
	.st10{fill:#E9E9E7;}
	.st11{fill:#C6D6A3;}
	.st12{fill:#A6BB88;}
	.st13{fill:#7A9E5B;}
	.st14{fill:#FFFCE6;}
	.st15{fill:#F37A5D;}
	.st16{fill:#DC6F54;}
	.st17{fill:#B89278;}
	.st18{fill:#A3826B;}
	.st19{fill:#EBE9D7;}
	.st20{fill:#84655A;}
	.st21{fill:#FFD425;}
	.st22{fill:#FFC628;}
	.st23{fill:#FFBA08;}
	.st24{fill:#937C66;}
	.st25{fill:#A58B71;}
	.st26{fill:#9D856C;}
	.st27{fill:#AE9277;}
	.st28{fill:#8C7661;}
	.st29{fill:#FCEF98;}
	.st30{fill:#E4E3D3;}
	.st31{fill:#B97595;}
	.st32{fill:#6D503E;}
	.st33{fill:#C2D4DD;}
	.st34{fill:#915B76;}
	.st35{fill:#D1D0C3;}
	.st36{fill:#B7C9D1;}
	.st37{fill:#A96B89;}
	.st38{fill:#674B3A;}
	.st39{fill:#FFFDE7;}
	.st40{fill:#D385A9;}
	.st41{fill:#7B5A46;}
	.st42{fill:#D9E6ED;}
	.st43{fill:#EFEFE1;}
	.st44{fill:#0D6EA9;}
	.st45{fill:#B33335;}
	.st46{fill:#E59B30;}
	.st47{fill:#A6A8AB;}
	.st48{fill:#3A704D;}
	.st49{fill:#58595B;}
	.st50{fill:#414042;}
	.st51{fill:#2B496C;}
	.st52{fill:#B2B5B7;}
	.st53{fill:#302B29;}
	.st54{fill:#D5C7A7;}
	.st55{fill:#C0AE8C;}
	.st56{fill:#203C5E;}
	.st57{fill:#A5A8A7;}
	.st58{fill:#201D1C;}
	.st59{fill:#FBCE3F;}
	.st60{fill:#F8BD32;}
	.st61{fill:#654D31;}
	.st62{fill:#EBA537;}
	.st63{fill:#A1485F;}
	.st64{fill:#E1BEA1;}
	.st65{fill:#924055;}
	.st66{fill:#B25169;}
	.st67{fill:#FACFE2;}
	.st68{fill:#F9C5DC;}
	.st69{fill:#D1B297;}
	.st70{fill:#753E56;}
	.st71{fill:#BC6254;}
	.st72{fill:#B15C4F;}
	.st73{fill:#90AA4E;}
	.st74{fill:#859D47;}
	.st75{fill:#627738;}
	.st76{fill:#7F9842;}
	.st77{fill:#77903C;}
	.st78{fill:#9A4F44;}
	.st79{fill:#8FD2E6;}
	.st80{fill:#78CBE4;}
	.st81{fill:#35B8CC;}
	.st82{fill:#00A1B6;}
	.st83{fill:#FFFDB9;}
	.st84{fill:#FFF68A;}
	.st85{fill:#FFE86A;}
	.st86{fill:#FFE142;}
	.st87{fill:#FFA1E9;}
	.st88{fill:#FF90E6;}
	.st89{fill:#E147BB;}
	.st90{fill:#DF3FAF;}
	.st91{fill:#925BD1;}
	.st92{fill:#FFD700;}
	.st93{fill:#FFEE75;}
	.st94{fill:#B3237A;}
	.st95{fill:#FF7CDC;}
	.st96{fill:#007E93;}
	.st97{fill:#5AB2D3;}
	.st98{fill:#72C9CB;}
	.st99{fill:#E5E6E7;}
	.st100{fill:#8094A1;}
	.st101{fill:#6D5A4D;}
	.st102{fill:#ACC665;}
	.st103{fill:#EDDD42;}
	.st104{fill:#EBC919;}
	.st105{fill:#9CB45C;}
	.st106{fill:#EBD339;}
	.st107{fill:#A4BD61;}
	.st108{fill:#808184;}
	.st109{fill:#F3869B;}
	.st110{fill:#FDE2DD;}
	.st111{fill:#ECCACA;}
	.st112{fill:#F593A2;}
	.st113{fill:#FFD76D;}
	.st114{fill:#E3C063;}
	.st115{fill:#E37D91;}
	.st116{fill:#CA7083;}
	.st117{fill:#FFE27A;}
	.st118{fill:#48484A;}
	.st119{fill:#424244;}
	.st120{fill:#6B5C4E;}
	.st121{fill:#D9F1F4;}
	.st122{fill:#3F3E40;}
	.st123{fill:#9BBECA;}
	.st124{fill:#564A3E;}
	.st125{fill:#B8D9E2;}
	.st126{fill:#645649;}
	.st127{fill:#766556;}
	.st128{fill:#353738;}
	.st129{fill:#333132;}
	.st130{fill:#3B3B3C;}
	.st131{fill:#231F20;}
	.st132{fill:#D0D2D3;}
	.st133{fill:#6ECAF3;}
	.st134{fill:#CED0D1;}
	.st135{fill:#F6CC78;}
	.st136{fill:#BBBDBF;}
	.st137{fill:#FFB4D3;}
	.st138{opacity:0.2;fill:#FFFFFF;}
	.st139{fill:#9D6F4A;}
	.st140{fill:#A97A4F;}
	.st141{fill:#FEC844;}
	.st142{fill:#C32A30;}
	.st143{fill:#A72226;}
	.st144{fill:#DCA43B;}
	.st145{fill:#8A171A;}
	.st146{fill:#8B6540;}
	.st147{fill:#5DFDFF;}
	.st148{fill:#8B1D24;}
	.st149{fill:#A72730;}
	.st150{fill:#770D18;}
	.st151{fill:#5D050C;}
	.st152{fill:#63C4DE;}
</style>
<g>
	<path class="st9" d="M146.973,144.019c0.35,1.74-1.19,3.27-2.93,2.92l-25.23-5.71c-0.15,0.08-0.3,0.15-0.44,0.23
		c-7.03,3.54-14.97,5.53-23.37,5.53c-25.01,0-45.88-17.63-50.88-41.14c-0.07-0.29-0.12-0.57-0.18-0.86
		c-0.64-3.24-0.97-6.59-0.97-10.02c0-28.74,23.29-52.03,52.03-52.03c3.57,0,7.07,0.36,10.44,1.05c0.15,0.03,0.3,0.06,0.45,0.1
		c23.51,5.01,41.13,25.88,41.13,50.88c0,8.51-2.04,16.54-5.67,23.63L146.973,144.019z"/>
	<g>
		<path class="st10" d="M130.813,141.229c-0.15,0.08-0.3,0.15-0.44,0.23c-1.146,0.577-2.325,1.097-3.518,1.59l17.188,3.89
			c1.44,0.29,2.725-0.714,2.933-2.052L130.813,141.229z"/>
		<path class="st10" d="M56.123,105.849c-0.07-0.29-0.12-0.57-0.18-0.86c-0.64-3.24-0.97-6.59-0.97-10.02
			c0-26.708,20.118-48.698,46.027-51.675c-1.97-0.227-3.971-0.355-5.997-0.355c-28.74,0-52.03,23.29-52.03,52.03
			c0,3.43,0.33,6.78,0.97,10.02c0.06,0.29,0.11,0.57,0.18,0.86c5,23.51,25.87,41.14,50.88,41.14c2.04,0,4.052-0.122,6.031-0.351
			C78.73,144.092,60.72,127.461,56.123,105.849z"/>
	</g>
	<path class="st11" d="M105.913,43.989l-0.02,0.1c-0.15-0.04-0.3-0.07-0.45-0.1c-3.37-0.69-6.87-1.05-10.44-1.05
		c-28.74,0-52.03,23.29-52.03,52.03c0,3.43,0.33,6.78,0.97,10.02c0.06,0.29,0.11,0.57,0.18,0.86l-0.1,0.02
		c-4.34-0.94-8.47-2.42-12.34-4.36c-0.14-0.08-0.29-0.15-0.44-0.23l-25.23,5.71c-1.74,0.35-3.28-1.18-2.93-2.92l5.62-25.42
		c-3.63-7.09-5.67-15.13-5.67-23.64c0-28.73,23.29-52.02,52.03-52.02C80.013,2.989,100.863,20.559,105.913,43.989z"/>
	<g>
		<path class="st12" d="M13.193,104.069l5.62-25.42c-3.63-7.09-5.67-15.13-5.67-23.64c0-27.021,20.603-49.224,46.965-51.771
			c-1.661-0.16-3.342-0.249-5.045-0.249c-28.74,0-52.03,23.29-52.03,52.02c0,8.51,2.04,16.55,5.67,23.64l-5.62,25.42
			c-0.35,1.74,1.19,3.27,2.93,2.92l7.262-1.644C13.143,104.953,13.103,104.519,13.193,104.069z"/>
	</g>
	<g>
		<path class="st13" d="M143.454,118.837c3.685-7.446,5.569-15.469,5.569-23.867c0-24.897-17.347-46.771-41.425-52.532
			C101.853,18.354,79.953,0.989,55.063,0.989c-29.792,0-54.03,24.233-54.03,54.02c0,8.285,1.933,16.518,5.569,23.876l-5.48,24.791
			c-0.296,1.472,0.162,2.985,1.224,4.047c0.848,0.848,1.981,1.311,3.177,1.311c0.308,0,0.62-0.03,0.933-0.094l24.529-5.551
			c3.674,1.824,7.533,3.206,11.484,4.153c5.747,24.093,27.625,41.448,52.536,41.448c8.461,0,16.556-1.905,24.069-5.651l24.576,5.562
			c0.296,0.06,0.594,0.089,0.889,0.089c1.179,0,2.32-0.465,3.173-1.316c1.062-1.062,1.52-2.575,1.216-4.085L143.454,118.837z
			 M5.62,105.028c-0.218,0.044-0.361-0.048-0.445-0.134c-0.083-0.083-0.173-0.225-0.139-0.394l5.62-25.42
			c0.007-0.032,0.006-0.064,0.011-0.096c0.011-0.067,0.019-0.134,0.024-0.201c0.005-0.066,0.007-0.13,0.005-0.195
			c-0.002-0.063-0.008-0.126-0.016-0.189c-0.009-0.068-0.02-0.135-0.035-0.202c-0.014-0.058-0.031-0.115-0.05-0.173
			c-0.023-0.07-0.049-0.138-0.08-0.205c-0.012-0.027-0.018-0.055-0.032-0.082c-3.616-7.063-5.45-14.711-5.45-22.729
			c0-27.581,22.443-50.02,50.03-50.02c22.424,0,42.227,15.218,48.181,36.578c-2.71-0.416-5.471-0.627-8.241-0.627
			c-29.792,0-54.03,24.238-54.03,54.03c0,2.772,0.218,5.532,0.635,8.235c-3.094-0.863-6.106-2.018-8.944-3.44
			c-0.107-0.061-0.219-0.117-0.332-0.175l-0.148-0.077c-0.036-0.019-0.073-0.028-0.109-0.045c-0.063-0.029-0.126-0.056-0.191-0.078
			c-0.059-0.02-0.118-0.036-0.178-0.05c-0.066-0.016-0.133-0.029-0.201-0.038c-0.063-0.008-0.125-0.012-0.189-0.015
			c-0.065-0.002-0.129-0.003-0.195,0.002c-0.071,0.004-0.141,0.014-0.211,0.026c-0.036,0.006-0.071,0.005-0.107,0.013L5.62,105.028z
			 M144.882,144.845c-0.086,0.084-0.232,0.17-0.397,0.145l-25.229-5.71c-0.036-0.008-0.072-0.007-0.107-0.013
			c-0.07-0.012-0.139-0.022-0.21-0.026c-0.066-0.004-0.13-0.004-0.196-0.002c-0.063,0.002-0.125,0.006-0.189,0.015
			c-0.068,0.009-0.134,0.022-0.2,0.038c-0.061,0.014-0.121,0.031-0.181,0.051c-0.065,0.022-0.127,0.049-0.189,0.077
			c-0.037,0.017-0.075,0.026-0.111,0.045l-0.142,0.073c-0.102,0.051-0.2,0.102-0.297,0.155c-6.994,3.515-14.54,5.297-22.431,5.297
			c-23.475,0-44.05-16.636-48.936-39.604c-0.04-0.168-0.072-0.332-0.105-0.497l-0.06-0.3c-0.616-3.128-0.929-6.364-0.929-9.618
			c0-27.587,22.443-50.03,50.03-50.03c3.393,0,6.77,0.34,10.038,1.009c0.013,0.003,0.026,0.002,0.039,0.004l-0.001,0.004
			c0.1,0.021,0.199,0.039,0.299,0.065l0.098,0.023c22.915,4.884,39.547,25.46,39.547,48.925c0,8.01-1.834,15.654-5.45,22.719
			c-0.014,0.027-0.02,0.055-0.032,0.082c-0.031,0.067-0.057,0.136-0.081,0.206c-0.019,0.057-0.036,0.113-0.049,0.171
			c-0.016,0.067-0.027,0.134-0.035,0.203c-0.008,0.063-0.014,0.125-0.016,0.188c-0.002,0.065,0,0.129,0.005,0.195
			c0.005,0.068,0.012,0.136,0.024,0.203c0.005,0.032,0.004,0.063,0.011,0.095l5.612,25.383
			C145.055,144.62,144.965,144.762,144.882,144.845z"/>
		<path class="st13" d="M94.94,72.992c-3.985-0.067-7.701,1.39-10.53,4.157s-4.387,6.472-4.387,10.429c0,1.104,0.896,2,2,2
			s2-0.896,2-2c0-2.872,1.131-5.561,3.185-7.569c2.054-2.01,4.754-3.098,7.645-3.017c5.419,0.119,10.056,4.635,10.336,10.066
			c0.232,4.504-2.657,8.593-7.192,10.173c-3.466,1.208-5.794,4.574-5.794,8.378v7.38c0,1.104,0.896,2,2,2s2-0.896,2-2v-7.38
			c0-2.104,1.25-3.952,3.11-4.601c6.229-2.171,10.196-7.86,9.87-14.156C108.791,79.248,102.535,73.16,94.94,72.992z"/>
		<circle class="st13" cx="94.202" cy="119.989" r="2"/>
	</g>
</g>
</svg>
