<?xml version="1.0" encoding="utf-8"?>
<!-- Generator: Adobe Illustrator 19.2.1, SVG Export Plug-In . SVG Version: 6.00 Build 0)  -->
<svg version="1.1" id="Layer_1" xmlns="http://www.w3.org/2000/svg" xmlns:xlink="http://www.w3.org/1999/xlink" x="0px" y="0px"
	 viewBox="0 0 150 150" style="enable-background:new 0 0 150 150;" xml:space="preserve">
<style type="text/css">
	.st0{fill:#7C634F;}
	.st1{fill:#D0D2D3;}
	.st2{fill:#6ECAF3;}
	.st3{fill:#CED0D1;}
	.st4{fill:#F6CC78;}
	.st5{fill:#BBBDBF;}
	.st6{fill:#58595B;}
	.st7{fill:#FFB4D3;}
	.st8{fill:#A6A8AB;}
	.st9{opacity:0.2;fill:#FFFFFF;}
	.st10{fill:#4F3E31;}
	.st11{fill:#EBEBEC;}
	.st12{fill:#E0E1E2;}
	.st13{fill:#D1D2D4;}
	.st14{fill:#534235;}
	.st15{fill:#4A3A2E;}
	.st16{fill:#F8C1D9;}
	.st17{fill:#FFFFFF;}
	.st18{fill:#E4E5E6;}
	.st19{fill:#836854;}
	.st20{fill:#745D4A;}
	.st21{fill:#F3A5C8;}
	.st22{fill:#66493C;}
	.st23{fill:#6F5043;}
	.st24{fill:#4C3C34;}
	.st25{fill:#F4F4F6;}
	.st26{fill:#F8F8F9;}
	.st27{fill:#EBEBEE;}
	.st28{fill:#DFDFE0;}
	.st29{fill:#86888A;}
	.st30{fill:#A54B94;}
	.st31{fill:#D4BC9B;}
	.st32{fill:#A55498;}
	.st33{fill:#D3A561;}
	.st34{fill:#C7B192;}
	.st35{fill:#DCC6A9;}
	.st36{fill:#D3AD72;}
	.st37{fill:#CAB4FF;}
	.st38{fill:#C6A9FF;}
	.st39{fill:#765C60;}
	.st40{fill:#864481;}
	.st41{fill:#AE8950;}
	.st42{fill:#AA8CE1;}
	.st43{fill:#846255;}
	.st44{fill:#6AAB98;}
	.st45{fill:#F5887A;}
	.st46{fill:#8C685B;}
	.st47{fill:#77584D;}
	.st48{fill:#F69788;}
	.st49{fill:#E07D70;}
	.st50{fill:#7CB0A7;}
	.st51{fill:#619E8D;}
	.st52{fill:#70524E;}
	.st53{fill:#A78AF2;}
	.st54{fill:#50DB7E;}
	.st55{fill:#FBC2F2;}
	.st56{fill:#ECF4F9;}
	.st57{fill:#987EE7;}
	.st58{fill:#FBB0F2;}
	.st59{fill:#AC92FF;}
	.st60{fill:#5C76AA;}
	.st61{fill:#00B8ED;}
	.st62{fill:#EFEFF0;}
	.st63{fill:#CDAA6F;}
	.st64{fill:#5E8664;}
	.st65{fill:#644F3B;}
	.st66{fill:#785E47;}
	.st67{fill:#5C4936;}
	.st68{fill:#6A533E;}
	.st69{fill:#80654D;}
	.st70{fill:#544835;}
	.st71{fill:#D8468E;}
	.st72{fill:#5AD83F;}
	.st73{fill:#47C93F;}
	.st74{fill:#1CB14B;}
	.st75{fill:#D1FF25;}
	.st76{fill:#FF86B5;}
	.st77{fill:#F086B5;}
	.st78{fill:#F0F1F1;}
	.st79{fill:#F580B5;}
	.st80{fill:#E5E6E7;}
	.st81{fill:#E67CAD;}
	.st82{fill:#D46CAD;}
	.st83{fill:#796F6C;}
	.st84{fill:#0E86FE;}
	.st85{fill:#C93131;}
	.st86{fill:#B83131;}
	.st87{fill:#E5E5E5;}
	.st88{fill:#0E7FFB;}
	.st89{fill:#DBDCDD;}
	.st90{fill:none;stroke:#8D382D;stroke-width:4;stroke-linecap:round;stroke-linejoin:round;stroke-miterlimit:10;}
	.st91{fill:none;stroke:#0E6CFE;stroke-width:4;stroke-linecap:round;stroke-linejoin:round;stroke-miterlimit:10;}
	.st92{fill:none;stroke:#BBBDBF;stroke-width:4;stroke-linecap:round;stroke-linejoin:round;stroke-miterlimit:10;}
	.st93{fill:none;stroke:#A6A8AB;stroke-width:4;stroke-linecap:round;stroke-linejoin:round;stroke-miterlimit:10;}
	.st94{fill:#701F2F;}
	.st95{fill:#1C3B71;}
	.st96{fill:#214181;}
	.st97{fill:#621221;}
	.st98{fill:#231F20;}
	.st99{fill:#31DCFF;}
	.st100{fill:#80192B;}
	.st101{fill:#80994A;}
	.st102{fill:#6B192B;}
	.st103{fill:#5E7031;}
	.st104{fill:#58192B;}
	.st105{fill:#68E674;}
	.st106{fill:#FD7C91;}
	.st107{fill:#27A5FF;}
	.st108{fill:#B081E3;}
	.st109{fill:#FFEB26;}
	.st110{fill:#FFF04D;}
	.st111{fill:#FFDE00;}
	.st112{fill:#FFD906;}
	.st113{fill:#EFBD55;}
	.st114{fill:#E2AD41;}
	.st115{fill:#D69E36;}
	.st116{fill:#CE9333;}
	.st117{fill:#F2829E;}
	.st118{fill:#FED77E;}
	.st119{fill:#FECC71;}
	.st120{fill:#FEC471;}
	.st121{fill:#F4CFB4;}
	.st122{fill:#F2729E;}
	.st123{fill:#9FA2A0;}
	.st124{fill:#E8C0A5;}
	.st125{fill:#D97CFF;}
	.st126{fill:#D1C6C1;}
	.st127{fill:#C0B6B2;}
	.st128{fill:#FAAF40;}
	.st129{fill:#F3AA3F;}
	.st130{fill:#F3F4F4;}
	.st131{fill:#9A8479;}
	.st132{fill:#99EC9B;}
	.st133{fill:#FF9AB5;}
	.st134{fill:#F38DB0;}
	.st135{fill:#8ED79B;}
	.st136{fill:#FFAAC4;}
	.st137{fill:#B9F6AB;}
	.st138{fill:#6D6E71;}
	.st139{fill:#93A8BE;}
	.st140{fill:#8CA1B7;}
	.st141{fill:#718AA2;}
</style>
<g>
	<g>
		<g>
			<path class="st139" d="M147.341,147.34c0.25,0.25,0.07,0.66-0.27,0.66H2.381c-0.21,0-0.38-0.17-0.38-0.38V2.93
				c0-0.34,0.41-0.52,0.66-0.27L147.341,147.34z M87.261,127c3.23,0,4.84-3.9,2.56-6.18l-59.64-59.64
				c-2.28-2.28-6.18-0.67-6.18,2.56v59.64c0,2,1.62,3.62,3.62,3.62H87.261z"/>
		</g>
		<g>
			<path class="st140" d="M11.001,147.62V11l-8.34-8.34c-0.25-0.25-0.66-0.07-0.66,0.27v144.69c0,0.21,0.17,0.38,0.38,0.38h9
				C11.171,148,11.001,147.83,11.001,147.62z"/>
		</g>
	</g>
	<g>
		<path class="st141" d="M148.755,145.926L4.075,1.246C3.389,0.56,2.366,0.355,1.473,0.725C0.579,1.096,0.001,1.961,0.001,2.93
			V147.62c0,1.312,1.067,2.381,2.38,2.381h144.69c0.969,0,1.834-0.578,2.204-1.473C149.645,147.634,149.441,146.613,148.755,145.926
			z M134.001,146v-3c0-1.104-0.896-2-2-2s-2,0.896-2,2v3h-6v-6c0-1.104-0.896-2-2-2s-2,0.896-2,2v6h-6v-3c0-1.104-0.896-2-2-2
			s-2,0.896-2,2v3h-6v-6c0-1.104-0.896-2-2-2s-2,0.896-2,2v6h-6v-3c0-1.104-0.896-2-2-2s-2,0.896-2,2v3h-6v-6c0-1.104-0.896-2-2-2
			s-2,0.896-2,2v6h-6v-3c0-1.104-0.896-2-2-2s-2,0.896-2,2v3h-6v-6c0-1.104-0.896-2-2-2s-2,0.896-2,2v6h-6v-3c0-1.104-0.896-2-2-2
			s-2,0.896-2,2v3h-6v-6c0-1.104-0.896-2-2-2s-2,0.896-2,2v6h-6v-3c0-1.104-0.896-2-2-2s-2,0.896-2,2v3h-6v-6c0-1.104-0.896-2-2-2
			s-2,0.896-2,2v6h-6v-3c0-1.104-0.896-2-2-2s-2,0.896-2,2v3h-6V6.829L143.173,146H134.001z"/>
		<path class="st141" d="M27.621,129h59.64c2.317,0,4.307-1.329,5.193-3.468c0.887-2.141,0.42-4.488-1.219-6.127l-59.641-59.64
			c-1.638-1.639-3.984-2.107-6.125-1.22c-2.14,0.886-3.469,2.876-3.469,5.194v59.64C22.001,126.479,24.522,129,27.621,129z
			 M26.001,63.74c0-1.006,0.765-1.401,0.999-1.498c0.11-0.046,0.351-0.128,0.648-0.128c0.335,0,0.742,0.104,1.118,0.48l59.641,59.64
			c0.711,0.712,0.448,1.533,0.352,1.768C88.661,124.236,88.266,125,87.26,125h-59.64c-0.894,0-1.62-0.727-1.62-1.62V63.74z"/>
	</g>
</g>
</svg>
